# xmcd
#
# Track frame offsets: 
#        150
#        15562
#        34695
#        48599
#        64801
#        79835
#        94670
#        106242
#        123396
#        139185
#        154513
#        169483
#
# Disc length: 2459 seconds
#
# Revision: 0
# Processed by: cddbd v1.5.2PL0 Copyright (c) Steve Scherf et al.
# Submitted via: ExactAudioCopyFreeDBPlugin 1.0
#
DISCID=9909990c
DTITLE=Jeff Allen - Raised On Gettin' By
DYEAR=2009
DGENRE=Country
TTITLE0=Watching You
TTITLE1=Can't Trust Myself
TTITLE2=Raised On Gettin' By
TTITLE3=Anyway
TTITLE4=Drives Me To Drink
TTITLE5=You've Gotta Stop This
TTITLE6=Mighty Miss
TTITLE7=Still Gonna Wait For You
TTITLE8=Running Out Of Ways
TTITLE9=Honky Tonk Saturday Night
TTITLE10=Hurt Me
TTITLE11=BONUS
EXTD=
EXTT0=
EXTT1=
EXTT2=
EXTT3=
EXTT4=
EXTT5=
EXTT6=
EXTT7=
EXTT8=
EXTT9=
EXTT10=
EXTT11=
PLAYORDER=
